<svg xmlns="http://www.w3.org/2000/svg" viewBox="0 0 47 50" width="47" height="50">
  <path d="M36.14 37.335l-.526-1.253-.802-1.78-.034-.034a359.93 359.93 0 0 0-7.696-15.748l-.108-.2-.83-1.67a10.02 10.02 0 0 0-1.253-1.914 5.627 5.627 0 0 0-4.461-2.129 5.849 5.849 0 0 0-4.461 2.089 12.015 12.015 0 0 0-1.253 1.914l-.943 1.846c-2.695 5.23-5.297 10.52-7.702 15.748l-.034.067c-.2.573-.485 1.16-.768 1.786q-.263.573-.526 1.253a7.83 7.83 0 0 0-.418 3.76 7.413 7.413 0 0 0 4.528 5.782 7.156 7.156 0 0 0 2.824.559 7.911 7.911 0 0 0 .903-.067 9.205 9.205 0 0 0 3.484-1.186 17.642 17.642 0 0 0 4.319-3.625 18.302 18.302 0 0 0 4.319 3.625 9.198 9.198 0 0 0 3.484 1.186 7.925 7.925 0 0 0 .903.067 7.042 7.042 0 0 0 2.824-.559 7.413 7.413 0 0 0 4.528-5.782 6.584 6.584 0 0 0-.317-3.726zm-15.708 1.813c-1.88-2.372-3.1-4.596-3.518-6.483a5.62 5.62 0 0 1-.108-2.123 3.369 3.369 0 0 1 .559-1.462 3.7 3.7 0 0 1 3.066-1.536 3.565 3.565 0 0 1 3.066 1.53 3.369 3.369 0 0 1 .559 1.462 5.6 5.6 0 0 1-.108 2.123c-.418 1.846-1.637 4.043-3.518 6.483zm13.902 1.637a5.175 5.175 0 0 1-3.174 4.043 5.276 5.276 0 0 1-2.642.384 6.853 6.853 0 0 1-2.648-.903 16.274 16.274 0 0 1-3.969-3.369c2.298-2.824 3.693-5.4 4.218-7.702a8.76 8.76 0 0 0 .175-2.965 5.654 5.654 0 0 0-.943-2.372 5.869 5.869 0 0 0-4.919-2.5 5.964 5.964 0 0 0-4.912 2.473 5.654 5.654 0 0 0-.943 2.372 7.237 7.237 0 0 0 .175 2.965c.526 2.298 1.954 4.912 4.218 7.736a15.654 15.654 0 0 1-3.969 3.369 6.853 6.853 0 0 1-2.655.93 5.573 5.573 0 0 1-2.648-.35 5.175 5.175 0 0 1-3.174-4.043 5.768 5.768 0 0 1 .317-2.695c.108-.35.276-.674.45-1.112.243-.56.526-1.152.802-1.745l.034-.067c2.406-5.2 4.98-10.485 7.67-15.647l.1-.25.836-1.604a7.642 7.642 0 0 1 1.004-1.543 3.659 3.659 0 0 1 5.573 0 7.655 7.655 0 0 1 .95 1.53l.836 1.604.1.2c2.648 5.196 5.236 10.485 7.635 15.68v.034c.276.56.526 1.186.802 1.745.175.418.35.768.45 1.112a5.883 5.883 0 0 1 .243 2.695z" fill="#ff5a5f" fill-rule="evenodd" transform="translate(-6, -12)"/>
</svg>
